<svg width="28" height="27" viewBox="0 0 28 27" fill="none" xmlns="http://www.w3.org/2000/svg">
<circle opacity="0.05" cx="13.8236" cy="13.4818" r="13.4818" fill="#FF0000"/>
<path d="M16.6514 12.0645C16.7429 12.0645 16.826 12.1054 16.8916 12.1729C16.9526 12.2449 16.9835 12.3342 16.9746 12.4287C16.9746 12.4599 16.7297 15.5561 16.5898 16.8594C16.5023 17.659 15.987 18.1447 15.2139 18.1582C14.6192 18.1715 14.0372 18.1758 13.4648 18.1758C12.8574 18.1758 12.2632 18.1715 11.6865 18.1582C10.9391 18.1403 10.4229 17.6458 10.3398 16.8594C10.196 15.5515 9.95564 12.4599 9.95117 12.4287C9.94671 12.3342 9.97752 12.2449 10.0391 12.1729C10.0998 12.1053 10.1873 12.0645 10.2793 12.0645H16.6514ZM14.4121 8.98828C14.8181 8.98832 15.1811 9.27162 15.2861 9.67578L15.3613 10.0117C15.4222 10.2847 15.6584 10.4783 15.9307 10.4785H17.2705C17.4492 10.4785 17.5977 10.6266 17.5977 10.8154V10.9902C17.5974 11.1742 17.449 11.3271 17.2705 11.3271H9.65723C9.47822 11.3271 9.32935 11.1742 9.3291 10.9902V10.8154C9.3291 10.6266 9.47807 10.4785 9.65723 10.4785H10.9961C11.2682 10.4785 11.5052 10.2846 11.5664 10.0117L11.6367 9.69824C11.7458 9.27174 12.1043 8.98846 12.5146 8.98828H14.4121Z" fill="#FF0000"/>
</svg>
